<svg xmlns="http://www.w3.org/2000/svg" version="1.0" preserveAspectRatio="xMidYMid meet" viewBox="51.63 156.13 482.7 218.8">

<g transform="translate(0.000000,495.000000) scale(0.100000,-0.100000)" fill="#000000" stroke="none">
<path d="M3070 3363 c-87 -30 -133 -58 -198 -117 -26 -24 -70 -64 -98 -89 -48 -44 -97 -121 -97 -152 0 -10 -5 -11 -18 -4 -28 14 -31 27 -9 34 23 7 55 61 41 69 -13 9 -21 79 -10 92 7 9 0 22 -26 48 -59 59 -81 47 -83 -44 0 -36 -3 -73 -7 -82 -4 -10 -3 -18 3 -18 14 0 24 -62 11 -71 -6 -4 -29 -7 -51 -7 -51 -1 -96 -11 -130 -28 -27 -14 -28 -14 -28 14 0 24 -15 42 -77 98 -167 149 -217 183 -303 207 -93 26 -164 31 -182 13 -15 -15 -12 -63 7 -108 4 -12 3 -18 -5 -18 -9 0 -10 -3 -1 -14 9 -10 8 -16 -4 -26 -14 -12 -19 -84 -5 -75 4 2 12 -7 18 -20 8 -17 25 -28 57 -36 25 -6 45 -15 45 -20 0 -5 7 -9 15 -9 9 0 18 -7 21 -15 5 -11 11 -12 24 -5 14 8 21 6 28 -6 7 -13 11 -14 17 -4 4 7 2 16 -6 21 -12 7 -12 12 -1 30 8 11 10 19 5 16 -5 -3 -9 3 -9 13 0 10 6 16 13 13 7 -3 13 2 13 12 0 9 -4 14 -8 11 -5 -3 -8 3 -7 13 1 20 22 44 45 54 10 3 6 6 -10 7 -21 2 -20 3 9 10 59 14 86 -15 37 -38 -31 -14 -60 -57 -50 -73 5 -8 3 -9 -6 -4 -10 6 -12 4 -7 -9 4 -10 7 -22 7 -27 0 -6 5 -7 10 -4 17 10 11 -4 -10 -25 -12 -12 -17 -26 -13 -36 4 -12 3 -15 -5 -10 -17 11 -15 4 12 -33 23 -30 26 -68 5 -55 -5 3 -9 1 -9 -5 0 -15 20 -24 20 -9 1 8 6 6 15 -6 8 -11 15 -15 15 -10 0 6 -5 15 -12 22 -6 6 -9 15 -5 18 9 10 47 -38 42 -53 -2 -7 0 -15 5 -18 6 -4 10 1 10 9 0 9 7 16 16 16 8 0 12 -4 9 -10 -3 -5 -1 -10 4 -10 6 0 11 -4 11 -10 0 -5 -8 -7 -17 -4 -15 5 -15 4 -3 -4 17 -13 30 -6 30 14 0 8 9 14 20 14 11 0 19 6 17 13 -1 7 6 11 16 9 9 -2 20 4 23 13 3 8 13 15 21 15 7 0 25 11 39 25 14 14 27 25 30 25 5 0 26 -47 30 -70 5 -23 50 -58 91 -69 39 -11 94 -7 154 11 50 14 85 85 75 151 -6 36 -4 48 10 59 9 7 58 54 108 103 118 117 199 185 221 185 13 0 15 -3 6 -13 -6 -8 -7 -17 -3 -21 4 -4 3 -7 -3 -6 -22 5 -34 -1 -40 -20 -4 -11 -10 -18 -15 -15 -4 3 -13 -2 -19 -9 -9 -11 -9 -16 0 -21 6 -4 15 -2 19 5 4 7 13 9 19 6 7 -4 10 -2 9 5 -2 7 15 22 37 34 23 13 39 29 39 38 -1 9 2 15 6 14 4 -1 20 11 35 27 21 22 29 26 35 16 9 -15 -14 -70 -30 -70 -5 0 -20 -24 -34 -53 -13 -29 -31 -59 -40 -66 -22 -18 -47 -71 -34 -71 6 0 0 -9 -13 -21 -13 -11 -23 -28 -22 -37 1 -10 0 -12 -3 -4 -3 6 -10 10 -15 6 -21 -12 -48 -12 -53 2 -3 9 -1 12 4 9 6 -4 14 4 19 17 6 13 10 19 10 14 1 -13 41 35 41 48 0 6 11 20 25 30 25 19 33 36 17 36 -5 0 -22 -13 -38 -30 -16 -16 -33 -30 -39 -30 -5 0 -3 4 5 10 8 5 11 12 7 16 -3 4 -14 1 -23 -7 -16 -13 -16 -12 -5 9 7 12 16 20 21 17 6 -3 7 1 4 9 -9 23 -18 20 -74 -20 -46 -33 -55 -45 -51 -67 1 -5 -4 -7 -10 -5 -16 5 -103 -88 -94 -101 10 -18 24 -13 55 19 34 34 56 41 41 11 -6 -10 -7 -22 -3 -26 4 -4 -2 -5 -13 -3 -12 2 -19 -2 -17 -9 1 -7 -2 -13 -7 -13 -5 0 -7 -9 -4 -20 6 -23 14 -25 31 -8 10 9 16 9 28 -4 9 -9 13 -21 9 -27 -10 -16 -25 -3 -18 15 5 14 3 15 -16 5 -24 -13 -41 -7 -41 15 0 9 -6 14 -12 11 -7 -2 -12 -10 -10 -16 1 -6 -3 -11 -9 -11 -5 0 -7 -5 -4 -10 4 -6 12 -10 18 -9 7 1 23 1 36 0 21 -1 23 -4 17 -33 -3 -18 -3 -28 2 -22 10 15 96 18 87 3 -5 -7 -1 -10 10 -7 10 1 20 9 23 17 3 8 0 11 -7 7 -19 -12 -12 6 12 32 12 14 16 22 10 18 -16 -9 -18 10 -3 19 6 4 16 2 23 -3 7 -6 27 -8 46 -6 19 2 39 0 45 -5 21 -16 43 -9 39 13 -3 14 9 36 37 66 50 55 66 83 74 136 7 37 5 43 -19 58 l-26 17 31 56 c38 72 40 120 4 133 -37 14 -50 13 -134 -17z m40 -63 c0 -5 -7 -7 -15 -4 -8 4 -15 8 -15 10 0 2 7 4 15 4 8 0 15 -4 15 -10z m-1139 -42 c29 -8 36 -14 26 -22 -7 -6 -10 -10 -8 -9 2 2 10 -5 16 -14 11 -15 15 -15 29 -4 9 8 20 11 23 7 9 -9 13 -36 5 -34 -16 3 -41 -15 -35 -25 4 -6 0 -8 -10 -4 -10 3 -17 2 -17 -2 0 -5 6 -12 13 -14 6 -3 2 -6 -10 -6 -13 -1 -22 2 -21 7 3 11 -25 52 -36 52 -17 0 -56 43 -56 62 0 21 25 23 81 6z m-84 -130 c-1 -5 18 -16 42 -25 36 -12 45 -12 52 -1 5 7 9 9 10 3 0 -5 2 -21 5 -34 4 -20 1 -23 -18 -17 -13 4 -34 9 -48 12 -34 7 -66 34 -74 61 -6 18 -3 20 13 16 11 -3 19 -9 18 -15z m1249 -66 c-22 -23 -29 -10 -9 18 11 16 18 19 21 11 2 -7 -3 -20 -12 -29z m-930 -5 c1 -17 0 -25 -3 -15 -3 12 -12 15 -34 11 -32 -5 -39 10 -11 26 32 19 47 13 48 -22z m669 -6 c-3 -6 -11 -11 -17 -11 -6 0 -6 6 2 15 14 17 26 13 15 -4z m-581 -21 c7 -7 6 -10 -1 -10 -7 0 -15 -9 -18 -21 -4 -13 -12 -18 -21 -15 -8 3 -13 2 -10 -2 3 -5 -4 -16 -14 -25 -11 -9 -17 -23 -14 -32 4 -8 1 -15 -5 -15 -6 0 -11 6 -11 14 0 8 -9 21 -20 29 -19 13 -19 54 0 42 4 -3 7 3 6 13 0 9 5 16 12 14 8 -1 16 6 19 17 4 16 9 18 36 10 17 -5 35 -13 41 -19z m770 2 c3 -5 -1 -9 -9 -9 -8 0 -12 4 -9 9 3 4 7 8 9 8 2 0 6 -4 9 -8z m-38 -19 c-3 -17 -26 -32 -26 -16 0 8 20 33 26 33 1 0 1 -8 0 -17z m-441 -39 c30 -32 33 -82 7 -114 -15 -19 -27 -22 -82 -21 -69 1 -80 8 -80 56 0 34 25 61 64 71 14 3 30 12 37 20 16 20 27 18 54 -12z m-297 -15 c-20 -11 -25 -39 -7 -39 5 0 7 -5 4 -10 -5 -8 -11 -8 -20 0 -10 8 -14 7 -17 -7 -3 -15 -5 -14 -10 5 -8 29 39 89 56 72 8 -8 6 -14 -6 -21z m697 13 c-3 -3 -11 0 -18 7 -9 10 -8 11 6 5 10 -3 15 -9 12 -12z m-905 -87 c0 -5 -5 -3 -10 5 -5 8 -10 20 -10 25 0 6 5 3 10 -5 5 -8 10 -19 10 -25z"/>
<path d="M3546 3233 c-4 -9 1 -24 10 -34 24 -26 10 -24 -34 6 -43 29 -48 30 -55 10 -4 -8 10 -32 33 -57 60 -65 73 -99 66 -170 -3 -33 -12 -69 -18 -81 -7 -12 -18 -38 -24 -57 -11 -31 -12 -32 -14 -10 -1 24 -2 24 -10 4 -20 -50 -9 -326 15 -374 7 -14 34 -36 60 -49 41 -20 55 -22 113 -16 75 8 94 16 135 53 35 33 36 69 2 78 -18 4 -36 -2 -67 -25 -23 -17 -48 -31 -55 -31 -17 0 -53 40 -53 59 0 14 1 14 10 1 5 -8 10 -13 11 -10 7 44 8 53 2 45 -9 -11 -33 -18 -33 -9 0 3 5 14 10 25 8 15 7 19 -5 19 -8 0 -15 6 -15 14 0 26 33 115 41 111 4 -3 10 1 12 7 3 8 6 6 6 -5 1 -9 7 -27 14 -38 10 -17 10 -23 0 -26 -15 -5 -18 -49 -4 -57 14 -9 31 19 36 60 2 22 10 80 16 129 18 136 14 185 -20 252 -34 66 -105 150 -149 175 -27 16 -30 17 -36 1z m103 -292 c-1 -17 -3 -20 -6 -8 -4 16 -6 15 -24 -5 -19 -23 -19 -22 -5 25 8 26 36 15 35 -12z m-71 -21 c-7 -10 -14 -17 -17 -15 -4 4 18 35 25 35 2 0 -1 -9 -8 -20z m-21 -52 c-3 -8 -6 -5 -6 6 -1 11 2 17 5 13 3 -3 4 -12 1 -19z m94 -11 c-8 -8 -11 -7 -11 4 0 20 13 34 18 19 3 -7 -1 -17 -7 -23z m66 -44 c-3 -10 -5 -4 -5 12 0 17 2 24 5 18 2 -7 2 -21 0 -30z m-137 -109 c0 -24 -4 -44 -9 -44 -10 0 -18 55 -13 83 7 33 22 6 22 -39z m-25 -254 c3 -6 -1 -7 -9 -4 -18 7 -21 14 -7 14 6 0 13 -4 16 -10z"/>
<path d="M3030 3210 c-8 -5 -10 -10 -5 -10 6 0 17 5 25 10 8 5 11 10 5 10 -5 0 -17 -5 -25 -10z"/>
<path d="M3076 3205 c-10 -8 -24 -16 -30 -18 -8 -3 -7 -8 1 -16 7 -6 11 -8 9 -5 -3 3 7 17 22 30 30 26 28 32 -2 9z"/>
<path d="M2980 3149 c0 -5 5 -7 10 -4 6 3 10 8 10 11 0 2 -4 4 -10 4 -5 0 -10 -5 -10 -11z"/>
<path d="M2949 3013 c-13 -16 -12 -17 4 -4 16 13 21 21 13 21 -2 0 -10 -8 -17 -17z"/>
<path d="M4219 2949 c-8 -5 -25 -9 -39 -9 -14 0 -38 -9 -55 -20 -47 -31 -54 -35 -157 -85 -54 -26 -98 -49 -98 -50 0 -1 7 -16 16 -34 27 -55 99 -83 224 -88 144 -5 147 -6 161 -52 14 -46 0 -83 -43 -114 -44 -33 -186 -36 -175 -4 4 14 37 17 54 4 27 -20 41 17 26 72 -9 34 -72 60 -124 51 -56 -10 -79 -34 -79 -83 0 -32 7 -47 38 -79 20 -22 55 -49 77 -60 73 -38 200 -12 267 55 8 8 30 17 49 18 38 4 78 29 96 62 16 28 16 102 2 130 -35 66 -115 110 -185 100 -24 -3 -44 -8 -44 -12 0 -3 -36 -7 -80 -7 -87 -2 -99 7 -59 45 12 11 18 24 14 30 -13 22 79 40 119 25 9 -3 16 -13 16 -22 0 -13 3 -12 15 4 13 16 14 16 9 2 -7 -21 -1 -22 27 -8 23 13 24 37 2 62 -9 10 -12 18 -7 18 20 0 12 39 -9 46 -35 12 -43 12 -58 3z m-222 -196 c-3 -3 -11 -2 -17 2 -9 6 -9 10 1 16 14 8 27 -7 16 -18z m393 -145 c0 -5 -7 -8 -15 -8 -10 0 -15 10 -15 33 l1 32 14 -25 c8 -14 14 -28 15 -32z"/>
<path d="M1927 2925 c-16 -15 -16 -34 -2 -81 5 -17 -49 -25 -85 -12 -47 16 -120 3 -186 -32 -31 -16 -58 -29 -60 -28 -1 2 -4 18 -7 37 -7 40 -18 54 -40 46 -27 -11 -32 -36 -32 -190 l-1 -150 -32 -32 c-70 -69 -11 -97 70 -32 l26 21 36 -27 c39 -30 44 -42 21 -51 -16 -7 -20 -64 -6 -99 5 -11 5 -24 1 -30 -4 -5 -1 -32 7 -60 8 -27 15 -58 16 -67 1 -9 4 -15 8 -12 4 2 10 -4 14 -13 3 -10 1 -19 -4 -21 -6 -2 -11 -12 -11 -23 0 -30 50 -119 67 -119 10 0 13 -6 9 -16 -3 -8 -2 -13 3 -9 5 3 11 2 13 -3 1 -4 19 -20 39 -35 27 -21 41 -25 65 -20 78 19 191 -8 201 -47 3 -10 11 -21 19 -24 11 -4 12 -1 1 17 -6 12 -14 24 -17 27 -3 3 -6 17 -7 33 -1 23 3 27 27 27 16 0 35 -6 42 -13 26 -25 86 -57 123 -64 36 -8 37 -9 14 -20 -13 -6 -64 -23 -114 -38 -85 -26 -125 -45 -96 -45 7 0 10 -4 6 -9 -3 -5 -1 -13 5 -16 8 -5 7 -12 -2 -23 -11 -13 -11 -14 1 -7 11 6 13 3 9 -13 -5 -19 -2 -22 21 -22 15 0 32 5 38 11 6 6 42 15 80 19 82 9 136 -9 131 -44 -2 -16 7 -26 41 -42 56 -27 71 -48 71 -100 0 -46 -11 -62 -80 -116 -102 -80 -154 -87 -221 -30 -27 23 -24 57 9 102 35 50 70 70 100 59 26 -10 26 -7 7 -54 -16 -36 -12 -81 5 -70 5 3 11 1 15 -5 13 -21 45 -10 51 18 4 15 16 44 27 66 25 47 18 63 -44 93 -58 29 -191 31 -174 3 3 -4 -16 -32 -43 -61 -44 -49 -47 -56 -47 -107 0 -47 4 -57 31 -81 32 -29 49 -57 45 -78 -2 -17 29 -16 149 1 100 15 170 38 211 71 26 21 69 125 69 165 0 33 -47 128 -69 139 -20 11 -138 123 -124 119 16 -5 92 35 86 45 -3 6 -1 7 6 3 7 -5 30 11 59 39 l47 48 -25 10 c-23 10 -38 13 -75 16 -14 1 -14 4 -1 23 7 13 17 36 20 51 4 17 16 31 31 37 14 5 25 14 25 20 0 5 7 10 15 10 13 0 21 26 16 53 -1 5 3 6 9 2 6 -3 7 -11 4 -17 -9 -15 26 6 54 32 24 23 28 19 12 -11 -9 -16 -7 -19 15 -19 14 0 25 -5 25 -11 0 -6 -10 -8 -22 -5 -13 3 -17 3 -11 0 9 -4 10 -11 3 -25 -6 -10 -8 -19 -4 -19 3 0 1 -7 -6 -15 -10 -12 -7 -14 24 -10 40 5 44 -2 19 -36 -40 -54 -42 -64 -17 -76 29 -14 61 5 51 31 -5 13 -3 15 12 7 14 -8 27 -3 60 20 22 17 41 34 41 38 0 4 6 8 13 8 6 0 24 4 40 8 34 9 34 2 1 -44 -25 -35 -24 -34 13 5 50 54 86 124 71 141 -5 7 -14 11 -18 8 -21 -13 -18 17 5 50 13 20 27 53 31 72 6 30 3 38 -25 63 -28 26 -42 48 -23 36 12 -7 45 61 38 79 -9 24 -74 48 -105 39 -14 -4 -34 -9 -44 -11 -21 -4 -77 -31 -77 -38 0 -6 32 6 48 18 9 7 11 6 7 -4 -4 -8 -21 -23 -39 -35 l-32 -21 2 46 c5 77 -42 153 -128 211 -21 14 -36 29 -35 34 6 19 55 47 102 59 32 9 49 19 51 30 1 12 -5 17 -22 17 -13 0 -24 4 -24 8 0 5 -47 8 -105 8 -91 -1 -106 -3 -111 -19 -3 -9 -20 -23 -38 -31 -17 -7 -47 -27 -66 -45 -19 -17 -37 -31 -41 -31 -4 0 -16 -18 -27 -39 l-21 -39 23 -6 c36 -9 99 10 194 58 28 14 55 26 59 26 5 0 21 -28 37 -62 16 -35 37 -75 48 -90 36 -52 13 -169 -42 -208 -36 -26 -160 -47 -197 -34 -59 21 -68 92 -16 140 40 37 71 32 90 -16 18 -46 41 -52 74 -19 15 15 19 28 14 47 -4 15 -11 29 -16 30 -5 2 -7 7 -4 12 11 17 -53 50 -97 50 -87 0 -193 -118 -174 -195 4 -14 24 -45 46 -68 l39 -42 85 0 85 0 -16 -24 c-8 -13 -24 -39 -35 -58 -22 -37 -22 -37 -46 -23 -9 5 -29 14 -44 20 -18 6 -28 17 -28 29 0 24 -19 31 -83 31 -69 -1 -103 -17 -130 -63 l-23 -37 -1 40 c-1 28 -10 49 -27 68 -14 15 -33 36 -43 48 -24 27 -156 123 -218 158 -27 15 -77 39 -110 52 -33 12 -52 23 -42 24 9 0 17 3 17 6 0 8 -27 34 -37 34 -4 0 -18 8 -30 18 -25 19 -32 49 -35 162 l-2 75 39 2 c21 0 60 11 86 23 58 27 81 23 133 -26 36 -34 38 -39 32 -82 -3 -24 -6 -58 -6 -74 0 -18 -10 -39 -29 -57 -43 -42 -27 -61 47 -55 31 3 73 9 92 14 59 16 131 15 141 -1 7 -12 9 -11 9 2 0 9 7 22 15 29 19 16 16 27 -51 168 -39 81 -61 115 -78 122 -13 4 -26 16 -29 24 -5 13 -2 15 18 10 25 -6 30 1 19 30 -3 8 -12 12 -20 9 -8 -3 -14 0 -14 6 0 6 -6 11 -14 11 -8 0 -20 16 -28 36 -14 34 -16 35 -31 19z m82 -296 c17 -50 15 -62 -9 -47 -13 9 -20 24 -20 45 0 42 15 42 29 2z m-11 -91 c-22 -13 -38 -9 -38 10 0 28 11 34 32 15 14 -13 16 -18 6 -25z m840 -229 c-12 -16 -29 -29 -39 -29 -9 0 -19 -6 -22 -13 -9 -23 26 -15 55 12 45 43 56 50 62 43 4 -3 4 1 0 11 -4 12 -1 17 10 17 25 0 21 -56 -4 -70 -11 -6 -25 -8 -30 -5 -5 3 -15 -3 -22 -15 -8 -12 -23 -20 -40 -20 -29 0 -37 -13 -16 -26 7 -5 8 -3 3 6 -5 8 -4 11 3 6 6 -3 8 -18 6 -32 -4 -24 -3 -26 22 -20 15 4 42 19 61 33 18 14 37 23 40 19 4 -4 1 -11 -7 -16 -13 -9 -7 -14 12 -11 3 0 11 -13 17 -30 5 -16 6 -27 1 -24 -5 3 -10 -5 -12 -17 -2 -17 -10 -23 -30 -24 -34 -1 -121 -42 -114 -53 3 -5 -2 -15 -11 -22 -9 -8 -14 -9 -10 -2 4 6 1 13 -5 16 -9 3 -7 11 8 27 l21 22 -24 24 c-13 13 -28 24 -34 24 -6 0 -7 5 -4 10 15 24 -22 44 -50 29 -42 -24 -47 -17 -15 18 64 69 135 134 155 143 32 12 37 1 13 -31z m-1048 -22 c25 -18 54 -37 65 -43 11 -6 21 -21 21 -33 1 -12 5 -25 9 -29 5 -4 5 1 2 11 -4 9 -2 17 3 17 6 0 10 -4 10 -10 0 -5 6 -7 14 -4 9 3 20 -3 28 -15 7 -12 16 -21 21 -21 4 0 18 -9 29 -20 21 -20 21 -20 2 -35 -29 -22 -40 -18 -38 15 1 16 -2 27 -7 24 -5 -3 -7 -9 -5 -13 3 -4 -4 -8 -15 -8 -39 -3 -89 -97 -74 -142 5 -17 10 -19 26 -11 29 16 44 2 23 -21 -16 -17 -16 -19 0 -25 13 -5 14 -9 5 -14 -15 -10 -41 -1 -33 11 3 5 -10 9 -30 9 -28 0 -41 7 -70 42 -19 24 -34 44 -32 45 1 1 16 3 34 5 17 1 29 4 27 6 -2 3 3 11 11 20 13 12 13 16 2 23 -7 5 -9 9 -5 9 4 0 3 9 -3 20 -6 11 -15 18 -20 15 -13 -8 -62 13 -56 24 4 5 0 11 -6 14 -7 3 6 8 28 12 58 10 68 18 55 42 -10 19 -61 59 -61 48 0 -3 -13 7 -30 22 -69 61 -14 69 70 10z m800 -110 c0 -2 -15 -16 -32 -33 l-33 -29 29 33 c28 30 36 37 36 29z m35 -47 c-3 -5 -11 -10 -16 -10 -6 0 -7 5 -4 10 3 6 11 10 16 10 6 0 7 -4 4 -10z m-661 -56 c9 -3 16 -14 16 -23 0 -12 -2 -13 -9 -3 -5 9 -17 11 -37 6 -26 -7 -28 -6 -15 9 15 19 21 20 45 11z m80 0 c9 -3 16 -12 16 -20 0 -7 9 -18 19 -24 11 -5 19 -19 18 -30 -1 -15 -4 -17 -16 -7 -12 10 -13 9 -4 -7 11 -21 6 -56 -9 -56 -5 0 -6 4 -3 10 3 5 2 18 -4 27 -6 11 -6 24 0 35 7 13 6 18 -5 18 -21 0 -26 -23 -10 -45 20 -28 17 -36 -11 -29 -14 3 -25 2 -25 -4 0 -5 -7 -12 -14 -15 -10 -4 -13 -1 -9 9 3 8 16 17 29 20 30 8 32 24 2 18 -13 -2 -17 -1 -10 2 9 4 10 10 2 18 -7 9 -4 19 10 36 15 18 17 26 9 37 -13 14 -9 16 15 7z m221 -35 c5 -16 9 -18 15 -9 7 11 17 10 54 -4 72 -28 81 -69 26 -118 -36 -33 -101 -38 -140 -11 -47 32 -47 44 -3 121 28 47 39 52 48 21z m655 0 c0 -16 -26 -39 -35 -31 -4 4 -4 -3 -1 -15 5 -15 3 -23 -4 -23 -6 0 -9 4 -5 9 8 13 -10 22 -29 15 -15 -6 -15 -8 1 -20 17 -13 17 -14 1 -8 -11 4 -18 1 -18 -6 0 -6 -4 -8 -10 -5 -5 3 -10 0 -10 -8 0 -20 -36 -51 -45 -38 -10 17 4 51 21 51 11 0 12 4 4 19 -14 27 -13 29 13 24 12 -2 40 7 62 21 45 28 55 31 55 15z m-538 -289 c-41 -25 -93 -46 -109 -44 -7 1 -25 2 -40 3 l-28 2 25 14 c14 8 41 15 60 15 19 1 49 7 65 15 46 21 64 17 27 -5z m28 -384 c0 -2 -8 -10 -17 -17 -16 -13 -17 -12 -4 4 13 16 21 21 21 13z"/>
<path d="M2732 2224 c-12 -8 -20 -20 -17 -25 11 -17 32 -9 43 16 13 29 6 32 -26 9z"/>
<path d="M1830 2150 c0 -5 5 -10 10 -10 6 0 10 5 10 10 0 6 -4 10 -10 10 -5 0 -10 -4 -10 -10z"/>
<path d="M1771 2138 c-1 -20 14 -24 25 -6 4 6 3 8 -4 4 -5 -3 -13 0 -15 6 -3 8 -6 6 -6 -4z"/>
<path d="M1820 1970 c0 -5 5 -10 10 -10 6 0 10 5 10 10 0 6 -4 10 -10 10 -5 0 -10 -4 -10 -10z"/>
<path d="M2781 1941 c-8 -6 -9 -11 -3 -15 6 -3 14 -1 17 5 9 14 2 20 -14 10z"/>
<path d="M1085 2887 c-23 -23 -37 -31 -44 -24 -6 6 -23 12 -38 13 -15 2 -40 6 -55 10 -16 3 -58 -1 -97 -11 -65 -16 -72 -20 -113 -72 -24 -30 -49 -61 -55 -68 -34 -35 -53 -170 -32 -220 7 -16 12 -33 11 -37 -3 -12 57 -50 68 -43 6 3 13 -1 16 -9 9 -24 100 -21 158 4 25 12 46 24 46 28 0 4 17 24 36 46 l36 38 24 -26 c14 -14 37 -28 52 -32 15 -3 38 -11 52 -19 35 -18 95 -28 126 -21 34 9 114 84 114 108 0 10 -4 16 -10 13 -13 -8 -13 10 0 38 8 17 7 16 -7 -3 -25 -36 -102 -110 -114 -110 -6 0 -8 7 -5 16 3 9 -4 25 -19 40 -18 17 -23 32 -20 52 21 129 40 208 51 215 22 13 17 29 -22 70 -31 32 -41 37 -81 37 -38 0 -50 -5 -78 -33z m45 -67 c0 -5 -8 -10 -17 -10 -15 0 -16 2 -3 10 19 12 20 12 20 0z m-158 -97 c13 -72 14 -91 3 -103 -7 -8 -16 -25 -19 -37 -10 -32 -58 -74 -102 -89 -58 -20 -54 -22 -122 37 -10 9 -13 34 -10 95 3 71 6 86 28 109 41 44 106 73 170 74 l36 1 16 -87z m170 -104 c10 -7 0 -39 -13 -39 -5 0 -9 17 -8 38 0 20 3 30 6 22 3 -8 10 -18 15 -21z m-35 -21 c-3 -8 -6 -5 -6 6 -1 11 2 17 5 13 3 -3 4 -12 1 -19z"/>
<path d="M1986 2911 c-3 -5 1 -14 8 -20 12 -10 13 -8 9 8 -6 23 -9 25 -17 12z"/>
<path d="M2955 2822 c-21 -4 -55 -35 -55 -50 0 -5 -7 -15 -15 -22 -12 -10 -14 -33 -12 -106 1 -52 5 -94 8 -94 3 0 6 -6 7 -12 6 -54 9 -63 19 -61 6 1 10 -5 9 -15 0 -9 6 -17 14 -17 8 0 21 -4 28 -9 12 -7 48 -15 82 -18 8 0 20 -4 25 -8 20 -16 127 -31 166 -25 45 8 92 43 114 86 19 36 18 59 -1 84 -16 19 -16 19 -10 -5 6 -25 6 -25 -5 -2 -16 29 -20 28 -47 -12 -44 -64 -64 -77 -128 -77 -53 -1 -61 2 -85 29 -32 35 -47 108 -30 140 10 19 13 19 58 5 56 -17 225 -12 249 7 42 36 -20 125 -114 161 -43 17 -81 22 -157 24 -55 0 -109 -1 -120 -3z m39 -76 c-12 -58 -24 -80 -36 -68 -16 16 9 113 28 105 11 -4 13 -14 8 -37z m238 3 c31 -12 44 -39 26 -50 -14 -9 -145 -4 -170 6 -13 5 -16 14 -11 34 3 14 10 29 15 32 11 7 104 -7 140 -22z"/>
<path d="M3133 2253 c-13 -2 -23 -9 -23 -14 0 -5 -5 -8 -12 -6 -21 4 -15 -27 14 -67 47 -66 34 -140 -66 -361 -46 -101 -48 -181 -9 -260 41 -82 47 -91 83 -127 47 -47 71 -58 122 -58 53 0 103 40 141 115 50 97 44 144 -18 150 -21 3 -25 -2 -30 -33 -12 -71 -15 -80 -44 -111 -41 -44 -97 -44 -141 0 -17 18 -29 37 -27 43 3 7 -1 20 -9 31 -19 26 -18 84 3 107 9 11 11 18 5 18 -7 0 -12 5 -12 11 0 17 52 130 57 125 3 -3 -7 -30 -21 -62 -31 -68 -31 -67 -4 -58 20 6 21 5 10 -9 -7 -8 -14 -26 -16 -39 -1 -13 -8 -34 -15 -47 -10 -17 -10 -21 -1 -16 9 5 10 1 5 -14 -4 -15 -2 -21 9 -21 9 0 19 15 25 38 6 20 24 64 41 97 17 33 33 71 35 85 2 14 18 66 36 115 82 236 21 399 -138 368z m117 -148 c0 -5 -5 -3 -10 5 -5 8 -10 20 -10 25 0 6 5 3 10 -5 5 -8 10 -19 10 -25z m-56 -259 c-3 -9 -10 -16 -15 -16 -6 0 -5 9 1 21 13 24 24 20 14 -5z"/>
<path d="M4668 2163 c-2 -10 7 -47 19 -83 81 -239 99 -424 53 -546 -6 -14 -10 -49 -10 -78 0 -44 5 -58 26 -80 25 -24 32 -26 98 -23 l71 3 -2 29 c-1 16 -11 36 -22 45 -15 11 -21 28 -22 60 -1 53 9 110 24 128 15 19 2 25 -17 7 -21 -21 -20 -16 3 38 14 32 27 46 46 51 60 15 86 -15 104 -119 23 -130 34 -175 44 -175 5 0 7 -7 3 -15 -8 -22 20 -32 117 -39 73 -5 89 -4 93 9 4 8 12 15 18 15 7 0 17 5 24 12 14 14 1 39 -46 87 -19 20 -55 61 -81 91 -25 30 -57 63 -70 74 -13 11 -32 28 -42 39 -10 12 -19 18 -19 15 0 -3 -17 11 -37 32 -31 30 -48 38 -91 44 -29 4 -55 12 -57 19 -1 7 -13 50 -25 97 -44 169 -69 218 -125 248 -16 9 -33 16 -37 17 -3 0 -10 3 -14 8 -12 12 -22 8 -26 -10z m482 -606 c0 -5 -4 -5 -10 -2 -5 3 -10 14 -10 23 0 15 2 15 10 2 5 -8 10 -19 10 -23z m-326 -122 c3 -8 1 -15 -4 -15 -6 0 -10 7 -10 15 0 8 2 15 4 15 2 0 6 -7 10 -15z"/>
<path d="M3715 2069 c-22 -5 -55 -11 -73 -13 -39 -5 -77 -28 -92 -56 -13 -24 -2 -50 11 -29 6 10 9 8 9 -9 0 -77 61 -108 192 -99 117 9 158 38 158 109 -1 30 -23 88 -32 80 -2 -2 -20 4 -40 12 -41 17 -71 18 -133 5z m93 -96 c-2 -10 -11 -17 -21 -17 -9 1 -17 -2 -17 -7 0 -5 -12 -4 -26 1 -33 13 -37 13 -28 -2 5 -8 1 -7 -10 1 -17 14 -17 15 0 28 10 7 38 13 62 13 36 0 43 -3 40 -17z"/>
<path d="M2592 2000 c-6 -11 -23 -22 -37 -26 -24 -6 -36 -34 -14 -34 5 0 7 5 4 10 -3 6 0 10 7 10 13 1 68 44 68 55 0 12 -16 4 -28 -15z"/>
<path d="M696 1975 c-37 -10 -64 -28 -108 -72 -32 -32 -56 -64 -53 -71 2 -7 1 -11 -4 -8 -5 3 -11 -5 -13 -19 -4 -17 -1 -25 9 -25 8 0 12 -4 9 -9 -4 -5 -1 -11 5 -13 7 -2 9 -13 4 -27 -6 -18 -9 -21 -16 -10 -12 20 -11 10 6 -48 16 -52 71 -115 118 -132 57 -22 70 -23 61 -10 -7 12 -5 12 9 0 9 -7 14 -18 10 -24 -3 -5 -1 -7 5 -3 6 3 13 2 17 -4 3 -5 13 -10 21 -10 8 0 13 3 11 8 -3 4 16 8 41 10 37 2 57 12 98 45 29 23 55 52 58 64 3 11 9 29 13 39 4 12 3 15 -5 10 -7 -4 -12 -2 -12 3 0 6 -9 11 -20 11 -11 0 -20 -6 -20 -14 0 -8 -7 -22 -16 -30 -8 -9 -12 -16 -7 -16 4 0 -7 -8 -25 -17 -30 -15 -35 -15 -72 2 -35 16 -60 52 -60 86 0 5 37 9 83 9 87 0 132 15 132 42 0 9 12 30 28 47 30 34 36 56 12 47 -10 -3 -15 1 -15 13 0 30 -57 99 -99 121 -47 23 -129 25 -205 5z m195 -97 c18 -30 20 -80 4 -96 -4 -4 -34 -5 -97 -3 -38 1 -36 24 5 83 38 56 60 60 88 16z m-248 -81 c-3 -22 -10 -34 -16 -30 -7 4 -8 0 -2 -13 4 -10 7 -29 6 -41 0 -12 10 -39 24 -59 26 -38 31 -54 17 -54 -14 0 -40 33 -57 73 -23 55 -20 115 8 141 12 12 23 22 24 21 1 -1 0 -18 -4 -38z"/>
<path d="M2611 1951 c-10 -6 -9 -10 3 -14 8 -3 18 -2 21 3 8 13 -9 20 -24 11z"/>
<path d="M1220 1939 c0 -5 -4 -7 -10 -4 -5 3 -10 1 -10 -5 0 -6 -4 -9 -8 -6 -11 7 6 -114 19 -138 7 -13 7 -16 0 -11 -7 4 -11 -10 -11 -40 0 -26 -5 -56 -11 -68 -7 -12 -12 -34 -11 -49 0 -18 -5 -29 -19 -33 -20 -7 -24 -22 -11 -42 9 -14 126 -39 165 -35 24 3 27 7 27 43 0 26 -5 42 -15 45 -8 4 -15 14 -15 23 0 9 -7 36 -15 60 -13 36 -14 45 -2 55 7 6 28 30 47 54 32 43 47 52 103 66 25 6 29 3 43 -30 9 -20 22 -43 30 -51 17 -17 19 -37 3 -27 -8 4 -9 -5 -5 -32 9 -60 10 -107 2 -131 -9 -29 -1 -55 22 -70 15 -9 43 -8 123 2 129 18 119 18 119 0 0 -11 5 -12 24 -5 13 5 27 6 30 3 13 -14 5 12 -9 27 -14 16 -12 19 35 39 59 25 64 47 17 76 -18 11 -44 42 -58 68 -14 26 -28 45 -32 42 -4 -3 -5 -2 -2 2 3 3 0 12 -6 20 -6 7 -8 13 -5 13 17 0 -32 63 -68 86 -34 23 -46 25 -93 20 -40 -4 -60 -2 -78 10 -19 12 -37 15 -72 9 -77 -11 -127 -27 -144 -46 -19 -21 -29 -15 -29 17 0 12 -11 29 -25 38 -28 18 -45 21 -45 5z m420 -104 c10 -12 10 -15 -4 -15 -13 0 -16 -12 -16 -65 0 -55 3 -65 18 -65 10 0 13 -3 6 -8 -17 -11 -27 -79 -13 -84 18 -6 0 -30 -18 -26 -12 2 -16 21 -18 83 -1 44 -6 106 -10 138 -8 56 -7 57 17 57 14 0 31 -7 38 -15z m-3 -127 c-3 -8 -6 -5 -6 6 -1 11 2 17 5 13 3 -3 4 -12 1 -19z m167 -66 c-20 -5 -20 -4 -28 43 l-7 40 25 -40 c20 -33 22 -41 10 -43z m-597 -4 c-3 -7 -5 -2 -5 12 0 14 2 19 5 13 2 -7 2 -19 0 -25z m93 -38 c0 -14 -26 -30 -48 -30 -17 0 -22 4 -19 14 3 8 9 31 13 51 l6 36 24 -33 c13 -17 24 -35 24 -38z m420 0 c0 -5 -4 -10 -10 -10 -5 0 -10 5 -10 10 0 6 5 10 10 10 6 0 10 -4 10 -10z"/>
<path d="M2595 1920 c-3 -5 -1 -10 4 -10 6 0 11 5 11 10 0 6 -2 10 -4 10 -3 0 -8 -4 -11 -10z"/>
<path d="M4249 1917 c9 -12 9 -17 0 -23 -7 -4 -9 -3 -5 4 11 18 -18 19 -49 1 -16 -10 -45 -32 -63 -49 -18 -16 -37 -30 -42 -30 -15 0 -20 -30 -9 -57 13 -36 64 -93 112 -125 35 -25 49 -28 119 -28 65 0 81 -3 98 -20 38 -38 20 -112 -32 -129 -32 -10 -117 -11 -116 -1 1 3 -2 13 -7 23 -11 26 -1 30 26 9 33 -26 57 -24 57 5 0 32 -59 77 -88 68 -22 -7 -26 -20 -8 -31 8 -5 6 -10 -8 -14 -10 -4 -22 -2 -26 4 -4 6 -8 -1 -8 -16 0 -16 -4 -28 -10 -28 -43 0 50 -94 108 -109 44 -12 142 -1 166 18 6 4 33 11 59 14 34 3 57 13 77 32 25 24 28 32 25 86 -3 52 -8 65 -37 95 -18 19 -57 45 -87 59 -46 21 -68 25 -155 25 -64 1 -110 5 -125 14 l-24 13 24 17 c13 9 30 16 37 16 8 0 26 8 40 19 15 10 44 24 64 30 20 7 42 19 48 27 7 8 30 14 54 14 40 0 66 13 66 33 0 4 -4 5 -10 2 -5 -3 -10 -3 -10 2 0 4 -12 9 -27 10 -73 6 -84 9 -91 19 -8 12 -52 14 -52 2 0 -5 -11 -6 -25 -3 -14 3 -37 8 -52 11 -22 4 -25 3 -14 -9z m289 -357 c8 -16 11 -36 9 -42 -3 -7 -6 -4 -6 7 -1 17 -3 17 -11 5 -8 -12 -10 -11 -10 7 0 12 -3 28 -6 37 -11 29 11 16 24 -14z"/>
<path d="M2670 1810 c-8 -15 -8 -20 3 -20 7 0 13 9 14 20 1 11 0 20 -2 20 -2 0 -9 -9 -15 -20z"/>
<path d="M3750 1764 c0 -8 -4 -13 -9 -10 -10 7 -3 -222 10 -290 11 -58 46 -103 96 -123 55 -22 106 4 148 76 15 26 17 39 9 69 -9 38 -34 59 -34 29 0 -9 -5 -13 -10 -10 -6 3 -14 -4 -19 -17 -13 -34 -49 -68 -71 -68 -24 0 -31 26 -28 95 3 87 -18 217 -38 232 -10 7 -24 11 -31 9 -7 -3 -10 1 -6 10 3 7 0 14 -6 14 -6 0 -11 -7 -11 -16z"/>
</g>
</svg>